<svg width="24" height="24" viewBox="0 0 24 24" fill="none" xmlns="http://www.w3.org/2000/svg">
<path d="M15.4384 17.7483L14.7433 18.4672L15.4384 17.7483ZM16.1664 18.5108L15.2942 19L16.1664 18.5108ZM15.5812 19.958L15.8681 20.9159L15.5812 19.958ZM15.5799 4.04196L15.2933 5L15.5799 4.04196ZM16.1653 5.48943L15.2933 5L16.1653 5.48943ZM15.4386 6.25062L14.7434 5.53177C13.0531 7.16643 12 9.46081 12 12H13H14C14 10.025 14.8168 8.243 16.1338 6.96946L15.4386 6.25062ZM13 12H12C12 14.539 13.0531 16.8328 14.7433 18.4672L15.4384 17.7483L16.1335 17.0295C14.8168 15.7562 14 13.9747 14 12H13ZM15 20V19C11.134 19 8 15.866 8 12H7H6C6 16.9706 10.0294 21 15 21V20ZM7 12H8C8 8.13401 11.134 5 15 5V4V3C10.0294 3 6 7.02944 6 12H7ZM15.4384 17.7483L14.7433 18.4672C14.967 18.6836 15.1176 18.8294 15.2225 18.9373C15.2741 18.9903 15.3035 19.023 15.3192 19.0416C15.3382 19.0641 15.3204 19.0466 15.2942 19L16.1664 18.5108L17.0386 18.0216C16.9302 17.8284 16.7678 17.6576 16.6567 17.5433C16.5249 17.4077 16.3473 17.2362 16.1335 17.0295L15.4384 17.7483ZM15 20V21C15.2374 21 15.5553 21.0096 15.8681 20.9159L15.5812 19.958L15.2942 19C15.3226 18.9915 15.3335 18.9939 15.2905 18.9964C15.2348 18.9996 15.1579 19 15 19V20ZM16.1664 18.5108L15.2942 19L15.5812 19.958L15.8681 20.9159C17.0947 20.5485 17.665 19.1384 17.0386 18.0216L16.1664 18.5108ZM15 4V5C15.1575 5 15.2342 5.00038 15.2896 5.00358C15.3324 5.00605 15.3215 5.00845 15.2933 5L15.5799 4.04196L15.8666 3.08392C15.5542 2.99045 15.2369 3 15 3V4ZM15.4386 6.25062L16.1338 6.96946C16.3471 6.76311 16.5244 6.59186 16.656 6.4565C16.7669 6.34235 16.9291 6.17176 17.0374 5.97885L16.1653 5.48943L15.2933 5C15.3194 4.95354 15.3371 4.93604 15.3183 4.95843C15.3026 4.97706 15.2732 5.0096 15.2218 5.06252C15.1171 5.17025 14.9668 5.31576 14.7434 5.53177L15.4386 6.25062ZM15.5799 4.04196L15.2933 5L16.1653 5.48943L17.0374 5.97885C17.6643 4.86181 17.0938 3.45108 15.8666 3.08392L15.5799 4.04196Z" fill="#21100B"/>
</svg>
